<?xml version="1.0" encoding="utf-8"?>
<!-- Generator: Adobe Illustrator 27.5.0, SVG Export Plug-In . SVG Version: 6.00 Build 0)  -->
<svg version="1.1" xmlns="http://www.w3.org/2000/svg" xmlns:xlink="http://www.w3.org/1999/xlink" x="0px" y="0px"
	 viewBox="0 0 500 500" style="enable-background:new 0 0 500 500;" xml:space="preserve">
<g id="BACKGROUND">
	<path style="fill:#FDEDEE;" d="M306.875,93.62C203.34,202.544,121.723,44.481,34.461,194.408
		c-68.362,117.455,26.311,231.507,135.906,247.869c95.246,17.492,209.255-6.574,276.058-123.018
		C569.935,103.971,395.863,0,306.875,93.62z"/>
</g>
<g id="OBJECTS">
	<g>
		<g>
			<g>
				<g>
					<path style="fill:#76413B;" d="M377.439,140.554l-2.093,68.907c0,0-24.581,19.601-75.099,14.347
						c-50.518-5.254-89.72-51.731-89.72-51.731l34.352-64.663L377.439,140.554z"/>
					<path style="fill:#965450;" d="M313.584,50.43c0,0,9.295-19.803,45.668-8.083s-6.466,52.539,20.207,64.259
						c26.673,11.72,36.777,30.311,11.316,66.28c-25.461,35.969,9.7,30.715,9.7,30.715s-20.611,22.896-36.373-7.547
						c-15.762-30.443-35.161-37.801-35.161-37.801S291.76,82.357,313.584,50.43z"/>
					<path style="fill:#965450;" d="M312.704,52.044c0,0,0.37-0.925,1.459-2.428c1.089-1.486,2.923-3.571,5.845-5.473
						c2.899-1.914,6.868-3.597,11.65-4.475c4.779-0.948,10.326-0.873,16.227-0.108c1.47,0.235,2.996,0.368,4.508,0.701
						c1.513,0.335,3.054,0.677,4.622,1.025l1.181,0.262c0.458,0.121,0.79,0.236,1.194,0.355c0.775,0.244,1.554,0.459,2.342,0.732
						c0.791,0.328,1.587,0.658,2.389,0.991c0.801,0.338,1.532,0.817,2.31,1.227c2.996,1.784,5.824,4.467,7.268,7.986
						c1.511,3.471,1.86,7.36,1.647,11.116c-0.396,7.56-2.628,14.99-3.207,22.55c-0.101,0.945-0.068,1.879-0.102,2.82l0.071,1.394
						c0.01,0.468,0.057,0.928,0.141,1.379c0.198,1.841,0.784,3.58,1.653,5.13c0.827,1.592,2.181,2.824,3.638,3.883
						c0.784,0.47,1.526,1.001,2.406,1.332l1.271,0.569l1.387,0.548c3.687,1.489,7.347,3.193,10.75,5.311
						c3.402,2.113,6.628,4.592,9.254,7.656c1.322,1.515,2.497,3.166,3.435,4.942c0.976,1.754,1.702,3.635,2.206,5.552
						c1.043,3.842,1.101,7.814,0.594,11.57c-1.016,7.564-4.1,14.263-7.332,20.249c-1.679,2.973-3.381,5.823-5.182,8.473
						c-0.874,1.329-1.734,2.636-2.577,3.919c-0.846,1.286-1.566,2.571-2.316,3.829c-1.415,2.559-2.613,5.093-3.489,7.588
						c-0.854,2.489-1.359,4.996-1.078,7.287c0.254,2.287,1.377,4.274,3.009,5.457c1.588,1.237,3.419,1.85,5.073,2.216
						c3.344,0.704,6.085,0.611,7.917,0.522c1.842-0.109,2.815-0.278,2.815-0.278s-0.964,0.214-2.805,0.408
						c-1.833,0.162-4.578,0.422-8.021-0.195c-1.705-0.319-3.622-0.876-5.376-2.143c-0.891-0.605-1.671-1.457-2.295-2.45
						c-0.294-0.511-0.582-1.038-0.754-1.625c-0.243-0.566-0.32-1.179-0.447-1.794c-0.388-2.487,0.068-5.146,0.864-7.76
						c0.822-2.62,2.021-5.237,3.404-7.882c0.735-1.296,1.466-2.659,2.283-3.959c0.819-1.303,1.653-2.631,2.501-3.982
						c1.727-2.658,3.345-5.504,4.934-8.46c3.056-5.944,5.869-12.546,6.81-19.686c0.455-3.554,0.366-7.237-0.614-10.744
						c-0.473-1.753-1.146-3.464-2.052-5.062c-0.867-1.619-1.957-3.129-3.194-4.525c-2.45-2.822-5.508-5.149-8.777-7.147
						c-3.279-2.011-6.805-3.618-10.424-5.063l-1.357-0.548l-1.423-0.645c-0.968-0.379-1.844-0.99-2.738-1.546
						c-1.699-1.239-3.315-2.757-4.308-4.674c-1.035-1.865-1.686-3.93-1.896-5.974c-0.088-0.512-0.136-1.022-0.146-1.53l-0.066-1.524
						c0.04-1.003,0.017-2.018,0.128-3.002c0.68-7.92,2.947-15.267,3.361-22.499c0.24-3.593-0.124-7.129-1.373-10.234
						c-1.21-3.14-3.643-5.556-6.38-7.275c-0.713-0.39-1.386-0.857-2.117-1.182c-0.733-0.324-1.46-0.645-2.182-0.964
						c-0.759-0.282-1.551-0.518-2.315-0.777c-0.37-0.118-0.8-0.271-1.117-0.359l-1.156-0.281c-1.535-0.374-3.045-0.742-4.526-1.104
						c-1.482-0.36-2.971-0.518-4.412-0.78c-5.776-0.842-11.197-1.11-15.895-0.348c-4.7,0.699-8.636,2.21-11.546,3.991
						c-2.92,1.78-4.848,3.724-5.99,5.159C313.117,51.136,312.704,52.044,312.704,52.044z"/>
				</g>
				<g>
					<path style="fill:#76413B;" d="M390.776,172.886c24.693-34.884,15.933-53.422-8.951-65.2
						c-3.483,7.052-7.753,13.575-13.677,18.551c-13.656,11.473-31.724,10.126-48.714,9.35c4.972,13.406,9.507,22.666,9.507,22.666
						s19.399,7.359,35.161,37.801c15.762,30.443,36.373,7.547,36.373,7.547S365.315,208.855,390.776,172.886z"/>
					<path style="fill:#76413B;" d="M391.434,175.063c0.75-1.258,1.47-2.543,2.316-3.829c0.844-1.283,1.703-2.59,2.577-3.919
						c1.8-2.65,3.503-5.499,5.182-8.473c3.232-5.986,6.317-12.685,7.332-20.249c0.507-3.756,0.449-7.728-0.594-11.57
						c-0.504-1.917-1.23-3.799-2.206-5.552c-0.938-1.776-2.113-3.427-3.435-4.942c-2.626-3.063-5.852-5.543-9.254-7.656
						c-3.103-1.931-6.424-3.509-9.781-4.903c-0.326,0.728-0.656,1.453-0.997,2.172c3.317,1.355,6.549,2.856,9.568,4.708
						c3.269,1.998,6.327,4.325,8.777,7.147c1.236,1.396,2.326,2.906,3.194,4.525c0.906,1.598,1.579,3.309,2.052,5.062
						c0.98,3.507,1.069,7.19,0.614,10.744c-0.941,7.14-3.754,13.742-6.81,19.686c-1.589,2.956-3.208,5.802-4.934,8.46
						c-0.848,1.351-1.682,2.678-2.501,3.982c-0.817,1.299-1.548,2.663-2.283,3.959c-1.383,2.645-2.582,5.261-3.404,7.882
						c-0.795,2.614-1.251,5.273-0.864,7.76c0.126,0.615,0.203,1.228,0.447,1.794c0.172,0.587,0.461,1.114,0.754,1.625
						c0.624,0.993,1.404,1.845,2.295,2.45c1.754,1.267,3.672,1.824,5.376,2.143c3.443,0.617,6.188,0.357,8.021,0.195
						c1.841-0.194,2.805-0.408,2.805-0.408s-0.973,0.169-2.815,0.278c-1.832,0.089-4.573,0.182-7.917-0.522
						c-1.653-0.366-3.484-0.979-5.073-2.216c-1.632-1.183-2.755-3.17-3.009-5.457c-0.281-2.291,0.224-4.799,1.078-7.287
						C388.822,180.156,390.019,177.622,391.434,175.063z"/>
				</g>
			</g>
			<g>
				<path style="fill:#E08282;" d="M282.728,160.758c0,0,6.607,48.703-4.911,48.703s43.648,0,43.648,0s-2.425-33.342,0-44.86
					C323.89,153.083,282.728,160.758,282.728,160.758z"/>
				<g>
					<path style="fill:#E08282;" d="M358.848,123.58c0,0-0.177,23.036-15.85,23.036c-15.673,0,0-29.503,0-29.503L358.848,123.58z"/>
					<path style="fill:#FFAC9D;" d="M298.136,68.676c0,0-53.611-0.023-41.144,68.573c11.894,65.44,85.404,60.469,91.638-5.611
						S298.136,68.676,298.136,68.676z"/>
				</g>
			</g>
			<g>
				<path style="fill:#965450;" d="M308.635,33.857c-1.416-0.95-2.926-1.827-4.523-2.626c-5.573-2.76-12.023-4.771-18.96-6.133
					c-3.542-0.583-7.25-0.945-11.055-0.492c-3.797,0.42-7.65,1.885-10.836,4.361c-3.164,2.509-5.577,5.837-7.591,9.287
					c-2.009,3.47-3.714,7.098-5.584,10.615c-1.881,3.499-3.92,6.939-6.564,9.834c-2.642,2.882-5.88,5.173-9.533,6.549
					c-0.931,0.292-1.854,0.615-2.794,0.884c-0.962,0.197-1.916,0.43-2.883,0.602l-2.939,0.35l-3.073,0.322
					c-4.11,0.511-8.201,1.382-12.083,2.699c-7.771,2.662-14.814,7.262-19.855,13.319c-5.093,6.014-8.042,13.384-8.764,20.533
					c-0.759,7.162,0.693,14.098,3.643,19.619c1.468,2.766,3.278,5.194,5.278,7.219c1.031,1,2.008,1.913,2.988,2.811
					c0.961,0.908,1.829,1.807,2.652,2.726c3.281,3.669,5.456,7.488,6.4,10.899c1.014,3.402,0.9,6.267,0.673,8.147
					c-0.141,0.943-0.272,1.666-0.404,2.143c-0.118,0.48-0.179,0.729-0.179,0.729s0.072-0.245,0.211-0.72
					c0.154-0.472,0.318-1.189,0.502-2.132c0.302-1.875,0.588-4.78-0.347-8.291c-0.803-3.331-2.739-7.08-5.678-10.744
					c0.353,0.32,0.694,0.65,1.065,0.955c25.461,20.932,3.233,39.202,3.233,39.202s15.383,15.743,32.512,15.46
					c0.458,0.104,0.898,0.219,1.377,0.311c3.636,0.691,7.951,0.945,12.482-0.147c4.514-1.1,9.065-3.662,12.841-7.398
					c0.472-0.469,0.946-0.94,1.424-1.415c0.498-0.538,0.868-1.017,1.312-1.534c0.424-0.514,0.865-1.008,1.283-1.547
					c0.405-0.564,0.813-1.131,1.223-1.702c0.868-1.117,1.508-2.373,2.249-3.593c0.335-0.63,0.625-1.289,0.941-1.938l0.465-0.981
					l0.381-1.024c2.204-5.435,2.531-11.738,1.473-17.707c-1.015-6.011-3.292-11.715-4.974-17.399
					c-0.847-2.835-1.539-5.697-1.599-8.52c-0.114-2.826,0.677-5.541,2.183-7.839c0.193-0.285,0.359-0.586,0.572-0.858l0.672-0.793
					c0.229-0.26,0.432-0.54,0.682-0.784l0.765-0.717l0.761-0.718l0.835-0.644l1.719-1.308c1.162-0.882,2.334-1.7,3.466-2.619
					c1.106-0.97,2.267-1.873,3.299-2.882c4.2-3.94,7.559-8.586,9.632-13.465c1.068-2.427,1.806-4.889,2.443-7.271
					c0.583-2.393,1.065-4.716,1.486-6.934c0.15-0.783,0.303-1.535,0.456-2.29c0.227-0.658,0.462-1.315,0.714-1.971
					c4.193-10.912,18.438-5.845,18.438-5.845S332.232,46.966,308.635,33.857z M193.408,132.059
					c-0.684-0.679-1.374-1.372-2.048-2.071c-1.857-2.008-3.561-4.354-4.905-7.033c-2.714-5.338-3.961-11.989-3.098-18.794
					c0.832-6.801,3.79-13.693,8.615-19.376c4.816-5.706,11.522-10.033,18.975-12.533c3.75-1.239,7.628-2.038,11.592-2.508
					l3.006-0.295l3.139-0.352c1.041-0.177,2.076-0.419,3.114-0.629c1.023-0.285,2.038-0.622,3.051-0.95
					c4-1.53,7.583-4.107,10.409-7.244c2.833-3.149,4.93-6.769,6.826-10.35c1.88-3.597,3.55-7.21,5.472-10.577
					c1.924-3.349,4.165-6.445,7.007-8.73c2.861-2.255,6.286-3.557,9.794-4.046c3.521-0.494,7.072-0.227,10.454,0.256
					c0.593,0.104,1.178,0.219,1.764,0.333c-40.089-5.382-22.751,40.78-58.266,45.095
					C188.951,77.035,178.917,112.575,193.408,132.059z M262.68,127.414c0.044,3.192,0.767,6.251,1.622,9.183
					c1.795,5.841,4.06,11.39,5.072,17.103c1.048,5.671,0.795,11.471-1.214,16.572l-0.345,0.961l-0.43,0.924
					c-0.292,0.612-0.556,1.234-0.867,1.831c-0.699,1.149-1.277,2.374-2.054,3.429c-0.367,0.545-0.733,1.087-1.096,1.626
					c-0.39,0.533-0.826,1.051-1.233,1.573c-0.408,0.502-0.836,1.078-1.22,1.51c-0.441,0.462-0.879,0.921-1.313,1.377
					c-3.486,3.64-7.688,6.162-11.937,7.327c-3.4,0.896-6.721,1.047-9.745,0.816c5.012-0.808,10.088-3.149,14.895-7.804
					c27.769-26.893-7.156-51.495,13.296-66.633c-0.278,0.355-0.546,0.718-0.795,1.098
					C263.539,120.939,262.574,124.231,262.68,127.414z"/>
				<g>
					<path style="fill:#965450;" d="M358.708,128.566c3.378-0.24,3.374-0.282,6.74-0.63c3.789-8.898,6.774-16.075,6.774-16.075
						l-36.41-48.093l-24.287,6.218c0,0,26.308,3.077,22.671,32.176C331.503,123.701,354.11,116.88,358.708,128.566z"/>
					<g>
						<path style="fill:#965450;" d="M312.23,68.652c0,0,0.399,0.058,1.137,0.228c0.735,0.176,1.82,0.442,3.149,0.941
							c1.33,0.492,2.922,1.176,4.658,2.155c1.737,0.971,3.609,2.269,5.388,4.001c0.904,0.85,1.748,1.838,2.579,2.897
							c0.786,1.091,1.555,2.262,2.179,3.556c1.286,2.563,2.213,5.509,2.536,8.622c0.347,3.107,0.249,6.352-0.265,9.563
							c-0.275,1.564-0.552,3.14-0.831,4.723l-0.198,2.243c0.03,0.751-0.021,1.517,0.066,2.254c0.108,1.491,0.484,2.91,1.073,4.213
							c0.623,1.29,1.552,2.403,2.642,3.371c2.202,1.934,5.018,3.263,7.665,4.811c1.327,0.786,2.634,1.632,3.796,2.654
							c1.166,1.023,2.129,2.262,2.847,3.576c1.386,2.702,1.538,5.585,1.285,8.036c-0.029,0.625-0.133,1.222-0.242,1.803
							c-0.114,0.579-0.174,1.157-0.33,1.695c-0.312,1.074-0.522,2.116-0.875,3.043c-0.332,0.933-0.597,1.821-0.924,2.61
							c-0.321,0.79-0.616,1.516-0.883,2.171c-0.534,1.308-1.069,2.286-1.379,2.974c-0.327,0.68-0.501,1.043-0.501,1.043
							s0.132-0.381,0.38-1.094c0.241-0.716,0.625-1.753,1.059-3.089c0.208-0.67,0.439-1.411,0.69-2.219
							c0.256-0.805,0.441-1.7,0.689-2.639c0.444-1.888,0.834-4.05,0.927-6.385c0.095-2.326-0.237-4.867-1.481-7.075
							c-0.66-1.077-1.499-2.08-2.559-2.93c-1.066-0.841-2.261-1.607-3.553-2.317c-1.333-0.707-2.687-1.427-4.059-2.155
							c-1.392-0.752-2.805-1.625-4.091-2.749c-1.284-1.114-2.453-2.484-3.242-4.083c-0.753-1.605-1.213-3.336-1.348-5.057
							c-0.09-0.861-0.033-1.711-0.051-2.565c0.08-0.851,0.153-1.715,0.252-2.55c0.291-1.571,0.58-3.137,0.867-4.689
							c0.497-3.039,0.716-6.071,0.455-8.969c-0.244-2.897-0.958-5.639-2.045-8.065c-1.084-2.43-2.53-4.537-4.123-6.261
							c-3.189-3.47-6.716-5.512-9.233-6.69C313.801,69.065,312.23,68.652,312.23,68.652z"/>
					</g>
				</g>
			</g>
		</g>
		<g>
			<g>
				<path style="fill:#C15F5F;" d="M298.901,121.528c0.348,1.059,0.617,2.148,0.797,3.248c0.206,1.099,0.319,2.211,0.409,3.328
					c0.065,0.559,0.046,1.119,0.069,1.68c0.023,0.561,0.008,1.123-0.002,1.686c-0.012,0.563-0.044,1.125-0.103,1.686
					c-0.058,0.561-0.087,1.126-0.17,1.686c-0.159,1.121-0.375,2.235-0.658,3.339c-0.12,0.556-0.273,1.106-0.47,1.643
					c-0.194,0.538-0.343,1.089-0.576,1.614l-0.68,1.579c-0.224,0.527-0.555,1.008-0.827,1.512c-0.281,0.501-0.566,0.998-0.919,1.456
					c-0.329,0.472-0.686,0.924-1.028,1.382l-0.499-1.472c0.689,0.252,1.384,0.486,2.069,0.752l2.056,0.798
					c1.361,0.564,2.724,1.122,4.057,1.785c-1.482-0.145-2.933-0.396-4.386-0.64l-2.166-0.415c-0.722-0.138-1.435-0.308-2.153-0.461
					l-1.199-0.255l0.699-1.217c0.263-0.458,0.512-0.923,0.788-1.367c0.289-0.436,0.512-0.913,0.732-1.39
					c0.216-0.479,0.468-0.936,0.656-1.428l0.585-1.463c0.202-0.484,0.325-1.003,0.492-1.501c0.157-0.503,0.332-1,0.451-1.518
					c0.13-0.513,0.282-1.021,0.395-1.539c0.108-0.521,0.197-1.045,0.321-1.563c0.12-0.519,0.187-1.05,0.284-1.576
					c0.102-0.526,0.161-1.058,0.23-1.591c0.175-1.062,0.262-2.137,0.37-3.214c0.043-0.539,0.112-1.081,0.134-1.623
					c0.023-0.542,0.09-1.088,0.106-1.634C298.822,123.74,298.878,122.641,298.901,121.528z"/>
			</g>
			<g>
				<path style="fill:#C15F5F;" d="M281.53,155.656c0,0,0.144,0.055,0.414,0.159c0.271,0.096,0.668,0.236,1.174,0.415
					c0.498,0.189,1.128,0.363,1.822,0.61c0.713,0.205,1.502,0.466,2.375,0.702c0.872,0.241,1.816,0.488,2.82,0.717
					c0.994,0.267,2.072,0.412,3.161,0.65c1.098,0.193,2.244,0.322,3.398,0.474c1.161,0.074,2.337,0.258,3.517,0.212l1.766,0.045
					c0.586-0.006,1.168-0.069,1.747-0.099c0.577-0.052,1.156-0.051,1.72-0.112c0.563-0.081,1.119-0.161,1.665-0.239
					c0.545-0.089,1.094-0.131,1.612-0.253c0.52-0.121,1.029-0.239,1.525-0.354c0.499-0.113,0.985-0.224,1.455-0.331
					c0.457-0.151,0.899-0.297,1.323-0.437c0.842-0.301,1.656-0.505,2.339-0.776c0.667-0.303,1.265-0.547,1.758-0.755
					c0.99-0.408,1.577-0.628,1.577-0.628s-0.471,0.388-1.333,1.045c-0.433,0.325-0.959,0.727-1.582,1.166
					c-0.631,0.421-1.401,0.796-2.231,1.237c-0.419,0.217-0.855,0.443-1.306,0.677c-0.477,0.173-0.97,0.352-1.477,0.535
					c-0.511,0.182-1.035,0.369-1.571,0.561c-0.535,0.205-1.116,0.267-1.69,0.411c-0.579,0.124-1.169,0.251-1.765,0.379
					c-0.599,0.116-1.216,0.148-1.835,0.208c-0.62,0.048-1.244,0.127-1.872,0.148l-1.891-0.006c-1.266,0.015-2.511-0.203-3.744-0.314
					c-0.618-0.053-1.213-0.213-1.808-0.326c-0.591-0.133-1.184-0.219-1.747-0.387c-1.134-0.307-2.225-0.611-3.226-1.004
					c-0.502-0.19-0.998-0.347-1.46-0.549c-0.459-0.206-0.903-0.406-1.329-0.597c-0.854-0.37-1.598-0.803-2.263-1.156
					c-0.654-0.382-1.219-0.717-1.666-1.026c-0.455-0.291-0.793-0.556-1.025-0.73C281.652,155.751,281.53,155.656,281.53,155.656z"/>
			</g>
			<g>
				<path style="fill:#352C38;" d="M273.985,130.102c0,0-0.12-0.468-0.203-1.309c-0.08-0.839-0.143-2.056,0.068-3.526
					c0.044-0.368,0.137-0.749,0.209-1.148c0.102-0.395,0.226-0.801,0.378-1.216c0.332-0.819,0.739-1.713,1.474-2.48
					c0.715-0.746,1.681-1.476,2.813-1.709l0.417-0.11l0.105-0.027l0.166-0.022l0.174-0.019l0.699-0.07
					c0.215-0.032,0.493-0.03,0.784-0.016l0.851,0.035c1.075,0.161,2.153,0.421,3.087,0.975c0.965,0.488,1.742,1.232,2.389,1.984
					c0.641,0.768,1.11,1.609,1.425,2.437c0.344,0.818,0.516,1.634,0.618,2.38c0.098,0.747,0.117,1.434,0.063,2.035
					c-0.008,0.6-0.144,1.114-0.212,1.53c-0.082,0.416-0.213,0.731-0.271,0.947c-0.071,0.213-0.109,0.327-0.109,0.327
					s-0.033-0.489-0.101-1.302c-0.064-0.408-0.103-0.896-0.232-1.441c-0.099-0.547-0.285-1.145-0.492-1.775
					c-0.232-0.625-0.521-1.279-0.894-1.913c-0.186-0.319-0.385-0.637-0.632-0.926c-0.221-0.309-0.483-0.585-0.747-0.866
					c-0.547-0.539-1.184-1.001-1.889-1.328c-0.688-0.366-1.478-0.535-2.258-0.651l-0.56-0.033c-0.178-0.019-0.371-0.034-0.623-0.003
					l-0.701,0.048l-0.175,0.011l-0.044,0.003l-0.022,0.001c-0.02,0.002,0.136-0.015,0.066-0.007l-0.008,0.002l-0.064,0.016
					l-0.258,0.061c-0.709,0.106-1.313,0.465-1.855,0.927c-0.533,0.476-0.972,1.098-1.345,1.729c-0.347,0.65-0.649,1.31-0.882,1.948
					c-0.459,1.279-0.746,2.418-0.934,3.222C274.085,129.637,273.985,130.102,273.985,130.102z"/>
			</g>
			<g>
				<path style="fill:#352C38;" d="M314.11,130.102c0,0-0.12-0.468-0.203-1.309c-0.08-0.839-0.143-2.056,0.068-3.526
					c0.044-0.368,0.137-0.749,0.209-1.148c0.102-0.395,0.226-0.801,0.378-1.216c0.332-0.819,0.739-1.713,1.474-2.48
					c0.715-0.746,1.681-1.476,2.813-1.709l0.417-0.11l0.105-0.027l0.166-0.022l0.174-0.019l0.699-0.07
					c0.216-0.032,0.493-0.03,0.784-0.016l0.851,0.035c1.075,0.161,2.154,0.421,3.088,0.975c0.965,0.488,1.742,1.232,2.389,1.984
					c0.641,0.768,1.11,1.609,1.425,2.437c0.344,0.818,0.516,1.634,0.619,2.38c0.097,0.747,0.117,1.434,0.062,2.035
					c-0.008,0.6-0.144,1.114-0.212,1.53c-0.082,0.416-0.213,0.731-0.271,0.947c-0.071,0.213-0.109,0.327-0.109,0.327
					s-0.033-0.489-0.101-1.302c-0.064-0.408-0.102-0.896-0.232-1.441c-0.099-0.547-0.285-1.145-0.492-1.775
					c-0.232-0.625-0.521-1.279-0.894-1.913c-0.186-0.319-0.385-0.637-0.632-0.926c-0.221-0.309-0.483-0.585-0.747-0.866
					c-0.547-0.539-1.184-1.001-1.889-1.328c-0.688-0.366-1.478-0.535-2.258-0.651l-0.56-0.033c-0.179-0.019-0.371-0.034-0.623-0.003
					l-0.701,0.048l-0.175,0.011l-0.044,0.003l-0.022,0.001c-0.02,0.002,0.136-0.015,0.066-0.007l-0.008,0.002l-0.064,0.016
					l-0.258,0.061c-0.709,0.106-1.313,0.465-1.855,0.927c-0.533,0.476-0.972,1.098-1.345,1.729c-0.347,0.65-0.649,1.31-0.882,1.948
					c-0.459,1.279-0.746,2.418-0.934,3.222C314.21,129.637,314.11,130.102,314.11,130.102z"/>
			</g>
			<g>
				<path style="fill:#76413B;" d="M305.956,114.516c0,0,0.199-0.629,0.746-1.634c0.545-1.004,1.429-2.401,2.803-3.85
					c0.679-0.731,1.488-1.465,2.415-2.17c0.922-0.713,1.995-1.354,3.166-1.924c1.179-0.557,2.48-0.998,3.851-1.285
					c1.375-0.25,2.815-0.392,4.243-0.279c0.718,0.016,1.415,0.18,2.119,0.269c0.687,0.156,1.375,0.322,2.029,0.541
					c1.313,0.435,2.541,1.009,3.639,1.669c1.115,0.642,2.079,1.4,2.968,2.126c0.845,0.778,1.634,1.507,2.263,2.27
					c0.318,0.378,0.637,0.721,0.907,1.078c0.26,0.363,0.507,0.706,0.739,1.03c0.224,0.328,0.44,0.626,0.623,0.916
					c0.171,0.298,0.327,0.572,0.469,0.82c0.558,0.99,0.827,1.581,0.827,1.581s-0.578-0.329-1.5-0.95
					c-0.45-0.322-1.022-0.679-1.668-1.082c-0.634-0.418-1.34-0.884-2.133-1.341c-0.762-0.5-1.633-0.945-2.513-1.449
					c-0.907-0.452-1.844-0.932-2.835-1.326c-0.983-0.416-2.015-0.74-3.055-1.024c-0.52-0.143-1.056-0.208-1.58-0.333
					c-0.533-0.046-1.063-0.171-1.599-0.167c-1.068-0.115-2.136-0.008-3.192,0.082c-1.051,0.155-2.09,0.37-3.094,0.671
					c-0.994,0.324-1.972,0.664-2.875,1.088c-0.908,0.41-1.769,0.841-2.549,1.288c-1.574,0.875-2.864,1.744-3.78,2.364
					C306.482,114.123,305.956,114.516,305.956,114.516z"/>
			</g>
			<g>
				<path style="fill:#76413B;" d="M264.707,116.982c0,0,0.124-0.589,0.519-1.554c0.398-0.961,1.064-2.309,2.149-3.771
					c1.083-1.456,2.61-3.03,4.669-4.282c1.037-0.604,2.186-1.158,3.449-1.496c1.258-0.333,2.602-0.54,3.941-0.474
					c0.673-0.011,1.327,0.137,1.986,0.207c0.638,0.151,1.288,0.283,1.888,0.506c0.602,0.219,1.21,0.42,1.749,0.721
					c0.554,0.275,1.102,0.541,1.583,0.883c1.012,0.614,1.868,1.343,2.65,2.041c0.369,0.369,0.728,0.728,1.075,1.075
					c0.335,0.356,0.624,0.727,0.911,1.072c0.585,0.682,1.025,1.378,1.417,1.985c0.413,0.589,0.703,1.153,0.937,1.616
					c0.474,0.922,0.698,1.471,0.698,1.471s-0.52-0.313-1.347-0.902c-0.406-0.301-0.915-0.646-1.487-1.036
					c-0.572-0.392-1.203-0.838-1.912-1.275c-0.683-0.473-1.452-0.917-2.244-1.386c-0.805-0.44-1.642-0.906-2.527-1.275
					c-0.873-0.405-1.795-0.705-2.716-0.959c-0.459-0.146-0.936-0.174-1.398-0.296c-0.47-0.026-0.938-0.137-1.407-0.112
					c-0.939-0.076-1.872,0.07-2.795,0.221c-0.922,0.178-1.819,0.487-2.695,0.825c-1.737,0.723-3.329,1.702-4.665,2.65
					c-1.348,0.938-2.436,1.849-3.214,2.494C265.149,116.6,264.707,116.982,264.707,116.982z"/>
			</g>
		</g>
	</g>
	<g>
		<defs>
			<rect id="SVGID_1_" x="105.36" y="155.656" width="353" height="344.344"/>
		</defs>
		<clipPath id="SVGID_00000087382603813234753510000005807603474688711581_">
			<use xlink:href="#SVGID_1_"  style="overflow:visible;"/>
		</clipPath>
		<g style="clip-path:url(#SVGID_00000087382603813234753510000005807603474688711581_);">
			<g>
				<g>
					<path style="fill:#6F96BD;" d="M231.744,334.948c0,0-47.285,35.767-55.772,87.295c-8.487,51.529,7.275,96.389,7.275,96.389
						h73.342l3.647-38.798l9.093,38.798h93.358c0,0,10.907-52.741,7.27-91.842c-3.637-39.101-40.006-83.961-40.006-83.961
						L231.744,334.948z"/>
					<path style="fill:#4E809B;" d="M342.995,361.141c-7.218-11.12-13.043-18.312-13.043-18.312l-98.207-7.881
						c0,0-7.273,5.503-16.625,15.297C254.796,369.038,301.604,374.597,342.995,361.141z"/>
					<path style="fill:#4E809B;" d="M208.684,460.865c-10.57-6.085-20.481-13.364-29.431-21.657
						c-1.652-1.531-3.273-3.085-4.866-4.663c-4.449,46.16,8.86,84.088,8.86,84.088h73.342l3.528-37.528
						C242.1,476.944,224.552,470,208.684,460.865z"/>
				</g>
				<g>
					<g>
						<g>
							<polygon style="fill:#DDEEFE;" points="342.998,518.632 344.35,511.484 344.829,511.594 							"/>
							
								<rect x="340.619" y="487.326" transform="matrix(0.139 -0.9903 0.9903 0.139 -183.0467 765.3325)" style="fill:#DDEEFE;" width="15.967" height="1.212"/>
							
								<rect x="343.573" y="455.546" transform="matrix(0.0428 -0.9991 0.9991 0.0428 -119.2307 787.8533)" style="fill:#DDEEFE;" width="15.968" height="1.212"/>
							<path style="fill:#DDEEFE;" d="M350.992,432.255c0,0-0.298-3.982-0.596-7.964c-0.47-3.945-0.94-7.89-0.94-7.89l1.2-0.173
								c0,0,0.475,3.986,0.949,7.971c0.298,3.982,0.596,7.964,0.596,7.964L350.992,432.255z"/>
							<path style="fill:#DDEEFE;" d="M346.508,400.766c0,0-0.941-3.88-1.883-7.761c-0.232-0.971-0.53-1.917-0.775-2.816
								c-0.253-0.896-0.49-1.733-0.693-2.45c-0.405-1.434-0.676-2.391-0.676-2.391l1.16-0.352c0,0,0.273,0.965,0.682,2.413
								c0.204,0.724,0.443,1.568,0.699,2.473c0.246,0.906,0.548,1.867,0.78,2.838c0.941,3.88,1.883,7.761,1.883,7.761
								L346.508,400.766z"/>
							<path style="fill:#DDEEFE;" d="M337.412,370.249c0,0-0.73-1.666-1.46-3.331c-0.37-0.83-0.701-1.681-1.036-2.271
								c-0.313-0.605-0.521-1.009-0.521-1.009s0.236,0.389,0.591,0.972c0.379,0.574,0.767,1.396,1.194,2.199
								c0.833,1.616,1.665,3.233,1.665,3.233L337.412,370.249z"/>
						</g>
					</g>
					<g>
						<g>
							<path style="fill:#4E809B;" d="M252.837,360.224c-0.23,0.551-0.478,1.094-0.692,1.651l-0.613,1.68
								c-0.392,1.126-0.852,2.22-1.185,3.366l-2.116,6.818c-0.626,2.296-1.181,4.613-1.774,6.915
								c-0.556,2.313-1.241,4.589-1.648,6.939l-1.411,6.995c-0.465,2.331-0.993,4.648-1.406,6.989l-2.222,14.093
								c-0.368,2.348-0.798,4.685-1.019,7.056l-0.804,7.09l-1.674,14.165l-1.072,14.231l-1.14,14.223l-1.316-1.831l13.986,3.72
								l13.966,3.792l-2.24,1.696c0.099-4.746,0.29-9.442,0.538-14.155c0.122-2.354,0.277-4.706,0.443-7.058
								c0.15-2.352,0.335-4.702,0.528-7.051c0.179-2.35,0.38-4.698,0.611-7.044c0.228-2.346,0.416-4.695,0.706-7.035l0.815-7.024
								l0.929-7.01c0.3-2.337,0.691-4.664,1.049-6.994l0.554-3.492l0.631-3.48c0.436-2.317,0.825-4.642,1.299-6.951l1.502-6.912
								c0.487-2.305,1.142-4.577,1.704-6.864l0.876-3.423l1.012-3.388l1.016-3.384c0.331-1.129,0.667-2.257,1.099-3.356l2.43-6.628
								l-1.968,6.771c-0.345,1.121-0.631,2.26-0.902,3.402l-0.838,3.419l-0.833,3.417l-0.697,3.45
								c-0.443,2.304-0.976,4.586-1.343,6.904l-1.176,6.934c-0.386,2.311-0.688,4.638-1.036,6.955l-0.499,3.479l-0.422,3.491
								c-0.265,2.329-0.613,4.646-0.843,6.98l-0.739,6.993l-0.625,7.004c-0.216,2.334-0.382,4.672-0.567,7.009
								c-0.192,2.336-0.355,4.674-0.496,7.014c-0.311,4.677-0.554,9.36-0.744,14.042c-0.221,4.676-0.387,9.376-0.459,14.03
								l-0.035,2.282l-2.205-0.586l-13.986-3.718l-13.967-3.79l-1.437-0.39l0.121-1.441c0.803-9.529,1.626-19.057,2.515-28.574
								l1.928-14.22l0.997-7.103c0.284-2.374,0.779-4.719,1.212-7.071l2.692-14.094c0.501-2.338,1.119-4.654,1.672-6.98l1.735-6.961
								c0.528-2.331,1.334-4.595,2.01-6.887c0.714-2.283,1.387-4.576,2.132-6.846l2.491-6.726c0.41-1.121,0.951-2.197,1.419-3.294
								l0.727-1.635C252.286,361.282,252.571,360.757,252.837,360.224z"/>
						</g>
						<g>
							<path style="fill:#2D506D;" d="M182.663,442.277c1.418,1.154,2.865,2.264,4.341,3.337c1.452,1.101,2.952,2.139,4.437,3.19
								c1.504,1.026,3.001,2.06,4.519,3.061l4.598,2.93c1.555,0.94,3.094,1.903,4.658,2.823l4.732,2.687l4.796,2.561
								c1.585,0.878,3.241,1.618,4.864,2.418c1.632,0.784,3.245,1.603,4.912,2.306l4.962,2.19l5.051,1.966
								c0.845,0.317,1.675,0.676,2.528,0.97l2.561,0.879c1.711,0.573,3.405,1.201,5.129,1.729l5.203,1.481
								c0.87,0.237,1.728,0.517,2.606,0.719l2.634,0.604l5.266,1.224l-1.229,0.201c1.353-0.755,2.701-1.448,4.05-2.155
								c1.343-0.72,2.709-1.383,4.071-2.055c1.361-0.675,2.726-1.341,4.098-1.991l4.155-1.864l4.154-1.863l4.213-1.724l4.226-1.688
								c1.4-0.584,2.83-1.092,4.263-1.591c2.857-1.021,5.721-2.021,8.588-3.001c1.439-0.475,2.909-0.865,4.36-1.3l4.37-1.256
								l4.37-1.237l4.445-0.961c2.961-0.639,5.926-1.24,8.885-1.833c-2.884,0.925-5.762,1.844-8.644,2.724l-4.318,1.321
								l-4.245,1.555l-4.244,1.536c-1.412,0.517-2.84,0.986-4.237,1.541c-2.78,1.155-5.563,2.291-8.353,3.405
								c-1.396,0.554-2.789,1.116-4.151,1.754l-4.111,1.849l-4.122,1.814l-4.061,1.948l-4.06,1.948l-4.01,2.041
								c-1.34,0.674-2.684,1.341-3.995,2.059c-1.319,0.706-2.65,1.405-3.927,2.132l-0.6,0.342l-0.629-0.141l-5.41-1.208
								l-2.704-0.612c-0.898-0.215-1.775-0.508-2.664-0.758l-5.315-1.563c-1.76-0.555-3.486-1.211-5.23-1.812
								c-1.742-0.609-3.488-1.207-5.174-1.959l-5.1-2.138l-4.997-2.36c-1.678-0.761-3.305-1.624-4.922-2.502
								c-1.616-0.882-3.262-1.704-4.833-2.663l-4.75-2.801l-4.633-2.985c-1.525-1.022-3.023-2.086-4.534-3.126
								c-1.506-1.048-2.947-2.19-4.42-3.278c-1.448-1.125-2.885-2.264-4.303-3.424c-1.395-1.19-2.8-2.363-4.154-3.597
								C185.266,444.85,183.947,443.576,182.663,442.277z"/>
						</g>
					</g>
				</g>
			</g>
			<g>
				<path style="fill:#FFA65B;" d="M276.235,183.857l51.292,3.174c0,0-4.243,16.368,4.85,16.974
					c9.093,0.606,56.984-6.062,54.56,30.917c-2.425,36.979-44.86,121.244-44.86,121.244s-75.171,9.7-124.881-16.368
					c0,0,4.85-125.487,21.218-133.368C254.781,198.549,277.078,207.356,276.235,183.857z"/>
				<path style="fill:#FF8650;" d="M352.44,280.021c-36.146-16.948-72.993-42.302-92.203-78.357
					c-6.862,1.079-14.876,1.42-21.825,4.766c-16.368,7.881-21.218,133.368-21.218,133.368
					c49.71,26.067,124.881,16.368,124.881,16.368s17.044-33.848,30.146-68.053C365.564,285.759,358.966,283.081,352.44,280.021z"/>
			</g>
		</g>
	</g>
	<g>
		<g>
			<g>
				<path style="fill:#352C38;" d="M187.193,206.695c0,0,3.973,23.377-24.842,36.107c-28.814,12.73-45.141,55.772-23.944,78.808
					c21.197,23.036,101.467,38.388,112.509-23.714c11.043-62.102,15.285-49.032,10.532-93.488
					C258.175,173.784,187.193,206.695,187.193,206.695z"/>
				<path style="opacity:0.5;fill:#0B0A0C;" d="M261.946,243.04c-9.179,11.821-22.873,16.893-37.504,16.581
					c-9.742-0.208-19.988-0.678-29.717-2.864c-1.282,2.961-2.428,6.01-3.846,8.819c-2.662,5.277-5.504,10.457-8.531,15.535
					c-6.168,10.344-12.65,20.5-19.175,30.622c-4.114,6.381-8.274,12.731-12.461,19.063c30.383,16.655,90.736,20.348,100.204-32.897
					c5.936-33.385,9.906-45.045,11.571-55.598C262.305,242.545,262.135,242.797,261.946,243.04z"/>
			</g>
			<g>
				<path style="fill:#352C38;" d="M123.352,140.784c0,0,0.715,0.338,2.056,0.971c0.416,0.206,0.881,0.435,1.393,0.688
					c0.528,0.27,1.104,0.564,1.727,0.882c1.166,0.645,2.5,1.382,4.002,2.343c2.968,1.915,6.723,4.522,10.531,9.107
					c1.875,2.293,3.722,5.183,5.013,8.642c0.669,1.712,1.125,3.575,1.452,5.469c0.275,1.893,0.418,3.846,0.314,5.738
					c-0.145,3.828-1.051,7.401-2.269,10.657c-1.229,3.261-2.811,6.191-4.537,8.962c-3.486,5.497-7.604,10.311-11.963,14.89
					c-4.363,4.576-9.006,8.891-13.666,13.125c-4.627,4.222-9.419,8.393-13.441,12.468c-0.498,0.507-0.972,1.007-1.424,1.499
					l-0.65,0.726l-0.303,0.352l-0.152,0.176c-0.047,0.062,0.282-0.4,0.121-0.175l-0.045,0.059l-0.089,0.118
					c-0.925,1.235-2.015,2.618-2.602,3.559c-0.717,0.983-1.405,2.181-2.102,3.347c-0.35,0.582-0.628,1.193-0.948,1.788
					c-0.32,0.595-0.626,1.196-0.881,1.814c-2.241,4.871-3.568,10.057-3.818,15.08c-0.165,2.516,0.005,4.979,0.39,7.333
					c0.158,1.192,0.481,2.315,0.749,3.451c0.372,1.088,0.681,2.202,1.158,3.216c0.395,1.061,0.962,2.004,1.451,2.984
					c0.595,0.903,1.117,1.853,1.793,2.662c0.604,0.872,1.333,1.609,2.014,2.376c0.342,0.383,0.742,0.696,1.104,1.048
					c0.373,0.339,0.721,0.703,1.13,0.986c3.096,2.491,6.538,4.127,9.793,5.115c0.799,0.294,1.619,0.452,2.401,0.642
					c0.392,0.094,0.778,0.186,1.156,0.276c0.383,0.076,0.766,0.122,1.138,0.184c0.747,0.109,1.461,0.244,2.153,0.325
					c0.699,0.057,1.365,0.111,1.998,0.162c1.263,0.147,2.419,0.077,3.416,0.113c0.999,0.039,1.856-0.033,2.55-0.069
					c1.392-0.074,2.135-0.114,2.135-0.114l0.247-0.013c2.004-0.107,3.715,1.431,3.822,3.435c0.1,1.884-1.27,3.512-3.098,3.788
					c0,0-0.829,0.122-2.383,0.352c-0.779,0.112-1.736,0.277-2.886,0.344c-1.149,0.069-2.46,0.258-3.96,0.233
					c-0.749,0.007-1.538,0.015-2.366,0.023c-0.83-0.02-1.703-0.095-2.614-0.146c-0.456-0.033-0.921-0.051-1.395-0.1
					c-0.475-0.066-0.958-0.133-1.45-0.201c-0.986-0.142-2.012-0.257-3.06-0.522c-4.2-0.866-8.956-2.548-13.569-5.599
					c-0.595-0.352-1.136-0.795-1.7-1.219c-0.554-0.437-1.146-0.844-1.681-1.328c-1.068-0.97-2.184-1.944-3.166-3.082
					c-1.056-1.078-1.944-2.319-2.898-3.55c-0.84-1.296-1.753-2.598-2.463-4.022c-0.798-1.39-1.4-2.88-2.051-4.382
					c-0.541-1.53-1.118-3.083-1.503-4.695c-0.842-3.207-1.375-6.567-1.482-9.977c-0.295-6.827,0.836-13.86,3.181-20.544
					c0.27-0.848,0.593-1.672,0.934-2.492c0.342-0.818,0.649-1.66,1.03-2.464c0.759-1.607,1.495-3.211,2.471-4.884
					c0.971-1.797,1.752-2.958,2.596-4.337l0.078-0.126l0.039-0.063c-0.132,0.184,0.223-0.32,0.206-0.296l0.207-0.295l0.416-0.589
					l0.829-1.124c0.552-0.727,1.104-1.428,1.654-2.103c2.203-2.701,4.397-5.134,6.566-7.518c2.14-2.328,4.272-4.647,6.387-6.947
					c4.16-4.537,8.106-8.959,11.543-13.305c3.439-4.329,6.376-8.608,8.347-12.512c0.966-1.94,1.71-3.782,2.115-5.365
					c0.406-1.582,0.53-2.9,0.412-3.819c-0.089-0.945-0.341-1.518-0.672-2.073c-0.328-0.55-0.785-1.116-1.433-1.724
					c-1.285-1.22-3.187-2.426-4.966-3.3c-0.878-0.45-1.75-0.821-2.497-1.151c-0.722-0.281-1.336-0.52-1.834-0.713
					c-1.393-0.508-2.136-0.779-2.136-0.779c-6.696-2.442-10.145-9.849-7.703-16.545c2.442-6.696,9.849-10.145,16.545-7.703
					c0.366,0.133,0.723,0.282,1.069,0.444L123.352,140.784z"/>
				<path style="fill:#352C38;" d="M138.589,315.145c0,0-0.808-50.114,50.518-41.223c51.326,8.891,8.011,52.943,8.011,52.943
					s40.352,12.194,35.165,24.89c-5.187,12.696-32.147-7.271-64.498-13.921C135.434,331.185,138.589,315.145,138.589,315.145z"/>
			</g>
		</g>
		<g>
			<g>
				<g>
					<path style="fill:#FFAC9D;" d="M377.439,252.906c0,0-0.182,0.493-0.536,1.41c-4.968,12.879-50.426,111.143-78.001,105.689
						c-44.971-8.895-104.945-80.021-104.945-80.021s-88.508,11.316-31.119-3.233c0,0-54.56-0.583,0-7.768c0,0-48.497,0.493,0-6.781
						c0,0-37.181-0.297,5.254-6.009c0,0,32.736-9.753,50.922,3.584l69.917,46.544c0,0,36.646-80.897,60.178-82.513"/>
					<path style="fill:#E08282;" d="M352.271,303.97c12.663-22.33,22.472-44.056,24.632-49.654c0.354-0.918,0.536-1.41,0.536-1.41
						l-28.33-29.098c-14.458,0.993-33.865,31.913-46.683,55.611C315.341,293.123,333.442,301.609,352.271,303.97z"/>
				</g>
				<path style="fill:#FFA65B;" d="M298.901,263.818c0,0,29.232-57.757,65.998-57.753c26.284,0.003,32.725,34.448,0,100.256
					C364.9,306.321,319.513,290.287,298.901,263.818z"/>
			</g>
			<path style="fill:#FFAC9D;" d="M129.366,306.321c0,0,4.122,11.831,6.87,12.747c2.748,0.916,79.689-2.748,21.983,5.038
				c0,0,59.538,1.832,3.664,5.496c0,0,56.332,7.328,0.916,6.87c0,0,47.293,12.366-5.893,4.58
				C156.906,341.052,123.87,338.457,129.366,306.321z"/>
		</g>
		<g>
			<g>
				<path style="fill:#352C38;" d="M206.283,242.803l8.836,42.435c0,0-6.926,8.487,0,9.699c0,0,6.455,12.731,11.237,0
					c0,0,5.951,8.706,6.882-2.922l-7.323-49.213H206.283z"/>
				<path style="fill:#352C38;" d="M246.023,242.071l31.503,29.773c0,0-0.833,10.923,5.543,7.959c0,0,12.573,6.757,9.221-6.422
					c0,0,9.859,3.743,3.978-6.331l-34.135-36.199L246.023,242.071z"/>
			</g>
			<g>
				<path style="opacity:0.5;fill:#0B0A0C;" d="M263.147,223.51c-0.287-5.034-0.846-11.138-1.698-19.101
					c-0.506-4.734-2.634-7.947-5.864-10.001c-19.956,1.983-54.619,10.24-68.257,13.61c0.148,2.287,0.101,7.302-2.194,13.121
					c4.755,9.904,15.72,22.401,40.781,21.663C246.044,242.21,257.094,233.451,263.147,223.51z"/>
				<g>
					<g>
						<g>
							<g>
								<path style="fill:#352C38;" d="M200.809,176.03c0,0-34.921-22.096-38.192-11.428c-3.271,10.668,24.764,36.615,24.764,36.615
									L200.809,176.03z"/>
								<path style="fill:#FFAC9D;" d="M201.314,180.603c0,0-28.101-17.781-30.734-9.196c-2.632,8.584,19.928,29.465,19.928,29.465
									L201.314,180.603z"/>
							</g>
							<g style="opacity:0.3;">
								<path style="fill:#0B0A0C;" d="M190.982,170.345c-4.626,7.783-8.282,15.912-9.913,24.622c3.618,3.756,6.312,6.25,6.312,6.25
									l13.428-25.187C200.809,176.03,196.606,173.372,190.982,170.345z"/>
							</g>
						</g>
						<g>
							<g>
								<path style="fill:#352C38;" d="M223.95,166.698c0,0,10.43-39.986,20.104-34.425c9.673,5.561,6.904,43.661,6.904,43.661
									L223.95,166.698z"/>
								<path style="fill:#FFAC9D;" d="M226.703,170.384c0,0,8.393-32.177,16.178-27.702c7.784,4.475,5.556,35.134,5.556,35.134
									L226.703,170.384z"/>
							</g>
							<g style="opacity:0.3;">
								<path style="fill:#0B0A0C;" d="M226.841,157.058c-1.799,5.461-2.892,9.64-2.892,9.64l27.008,9.236
									c0,0,0.435-6.012,0.356-13.603C243.632,158.67,235.297,156.643,226.841,157.058z"/>
							</g>
						</g>
					</g>
					<g>
						<path style="fill:#352C38;" d="M215.823,162.577c0,0-32.284,8.49-30.958,47.364c1.327,38.875,59.986,30.861,77.535,6.343
							S252.972,160.808,215.823,162.577z"/>
						<g>
							<g>
								<path style="fill:#0B0A0C;" d="M234.242,220.112c0,0-8.247-1.986-8.687-3.985c-0.44-1.999,12.343-5.838,12.647-3.849
									C238.506,214.266,234.242,220.112,234.242,220.112z"/>
								<path style="fill:#FFAC9D;" d="M233.017,232.295c0,0,3.613,7.026,9.636,4.818c6.022-2.208,2.611-9.943,2.611-9.943
									s-5.704,2.467-10.982-6.743C234.281,220.427,237.835,229.685,233.017,232.295z"/>
								<g>
									<path style="fill:#0B0A0C;" d="M220.772,228.882c0.964,0.639,1.973,1.199,3.002,1.706c0.516,0.251,1.043,0.474,1.574,0.683
										c0.538,0.189,1.073,0.386,1.623,0.513c0.542,0.161,1.098,0.25,1.648,0.322l0.828,0.058l0.818-0.052
										c0.531-0.092,1.066-0.191,1.534-0.442l0.361-0.161l0.318-0.235l0.318-0.231l0.122-0.087l0.144-0.162
										c0.186-0.216,0.397-0.43,0.564-0.647l0.358-0.649c0.194-0.473,0.404-0.971,0.475-1.507c0.129-0.52,0.124-1.077,0.146-1.62
										c-0.013-0.551-0.042-1.102-0.128-1.654c-0.069-0.551-0.183-1.102-0.311-1.648c-0.127-0.547-0.285-1.088-0.451-1.627
										c-0.345-1.068-0.763-2.141-1.239-3.134l1.09-0.509c0.451,0.991,0.993,1.994,1.581,2.938
										c0.295,0.474,0.601,0.943,0.929,1.393c0.321,0.456,0.664,0.894,1.024,1.315c0.352,0.428,0.741,0.821,1.13,1.209
										c0.407,0.367,0.809,0.743,1.261,1.041c0.424,0.349,0.918,0.557,1.381,0.83c0.496,0.175,0.982,0.419,1.508,0.468
										c0.516,0.146,1.043,0.066,1.573,0.071c0.467-0.105,1.142-0.192,1.555-0.424c0.238-0.096,0.48-0.187,0.693-0.354
										c0.213-0.157,0.465-0.268,0.64-0.473c0.405-0.35,0.733-0.781,1.024-1.24c0.283-0.467,0.507-0.972,0.688-1.499
										c0.168-0.531,0.297-1.078,0.384-1.635c0.157-1.116,0.199-2.26,0.101-3.398c0.226,1.122,0.296,2.279,0.214,3.434
										c-0.044,0.578-0.132,1.153-0.265,1.724c-0.146,0.568-0.342,1.126-0.611,1.662c-0.284,0.525-0.636,1.022-1.075,1.446
										c-0.193,0.24-0.467,0.387-0.706,0.577c-0.234,0.198-0.518,0.329-0.806,0.46c-0.599,0.318-1.079,0.381-1.714,0.551
										c-0.609,0.036-1.229,0.143-1.836,0.01c-0.624-0.037-1.19-0.277-1.776-0.461c-0.534-0.279-1.098-0.529-1.57-0.897
										c-0.507-0.327-0.948-0.724-1.395-1.115c-0.425-0.409-0.848-0.825-1.229-1.272c-0.389-0.441-0.757-0.897-1.101-1.369
										c-0.352-0.467-0.678-0.951-0.994-1.441c-0.633-0.985-1.198-1.985-1.71-3.064l1.09-0.509
										c0.509,1.097,0.909,2.189,1.258,3.323c0.166,0.568,0.323,1.137,0.448,1.718c0.126,0.579,0.237,1.164,0.303,1.759
										c0.081,0.592,0.106,1.194,0.109,1.798c-0.032,0.605-0.039,1.216-0.194,1.819c-0.098,0.61-0.333,1.193-0.601,1.769
										l-0.537,0.834c-0.195,0.229-0.403,0.418-0.603,0.63l-0.152,0.154c-0.123,0.119-0.147,0.109-0.226,0.169l-0.394,0.261
										l-0.394,0.257l-0.437,0.175c-0.572,0.266-1.193,0.354-1.799,0.426l-0.913,0.014l-0.896-0.105
										c-0.586-0.107-1.173-0.225-1.727-0.428c-0.564-0.178-1.099-0.423-1.633-0.66c-0.526-0.256-1.044-0.524-1.546-0.819
										C222.619,230.285,221.659,229.626,220.772,228.882z"/>
								</g>
							</g>
							<g>
								<g>
									<path style="fill:#FFFFFF;" d="M200.682,216.177l24.862-10.005C225.544,206.172,225.988,235.311,200.682,216.177z"/>
									<g>
										<defs>
											<path id="SVGID_00000003082644502717980900000009444822208931019158_" d="M200.682,216.177l24.862-10.005
												C225.544,206.172,225.988,235.311,200.682,216.177z"/>
										</defs>
										<clipPath id="SVGID_00000062154305783506641620000003786416152343616422_">
											<use xlink:href="#SVGID_00000003082644502717980900000009444822208931019158_"  style="overflow:visible;"/>
										</clipPath>
										<path style="clip-path:url(#SVGID_00000062154305783506641620000003786416152343616422_);fill:#0B0A0C;" d="
											M209.122,208.924c0,0,5.142,11.722,7.35,10.277c2.208-1.445-1.606-13.029-1.606-13.029L209.122,208.924z"/>
									</g>
								</g>
								<g>
									<path style="fill:#FFFFFF;" d="M254.969,193.733l-24.68,10.447C230.289,204.18,250.529,225.147,254.969,193.733z"/>
									<g>
										<defs>
											<path id="SVGID_00000177471337129029269260000000985309173669452183_" d="M254.969,193.733l-24.68,10.447
												C230.289,204.18,250.529,225.147,254.969,193.733z"/>
										</defs>
										<clipPath id="SVGID_00000155859357789165121070000015287688411554888092_">
											<use xlink:href="#SVGID_00000177471337129029269260000000985309173669452183_"  style="overflow:visible;"/>
										</clipPath>
										<path style="clip-path:url(#SVGID_00000155859357789165121070000015287688411554888092_);fill:#0B0A0C;" d="
											M243.871,194.546c0,0,4.624,11.936,2.04,12.469c-2.584,0.534-8.053-10.368-8.053-10.368L243.871,194.546z"/>
									</g>
								</g>
							</g>
						</g>
					</g>
				</g>
			</g>
		</g>
	</g>
</g>
</svg>
